<svg width="104" height="112" viewBox="0 0 104 112" fill="none" xmlns="http://www.w3.org/2000/svg">
<path d="M83.9212 47.0116C76.51 53.7272 66.6926 59.024 55.3352 61.5778C43.9778 64.1316 32.8129 63.6586 23.188 60.7265C21.4555 60.159 20.2043 62.429 21.7443 63.5641C31.4654 70.658 44.4591 73.6847 57.4527 70.658C70.4463 67.7258 80.8412 59.4969 86.4237 48.9033C87.3862 47.2954 85.2687 45.782 83.9212 47.0116ZM37.3366 44.9308L37.1441 44.7416C37.0479 44.647 36.8554 44.5524 36.6629 44.3633C36.4704 44.2687 36.2779 44.0795 36.0854 43.9849C35.8929 43.7957 35.6041 43.6066 35.3154 43.4174C35.0267 43.2282 34.7379 43.0391 34.4492 42.9445C34.1604 42.7553 33.8717 42.6607 33.5829 42.6607C33.2942 42.5661 33.1017 42.5661 33.0054 42.5661H32.7167H32.9092L32.4279 42.6607C32.3317 42.7553 32.1392 42.8499 31.9467 42.9445C31.7542 43.1336 31.4654 43.3228 31.2729 43.512C31.0804 43.7012 30.8879 43.9849 30.6954 44.2687C30.3104 44.8362 30.0217 45.3091 29.8292 45.6875C29.5405 46.255 29.4442 46.255 29.4442 46.255L29.2517 46.6333C28.2892 48.2413 26.1717 48.9033 24.4392 48.0521C23.2843 47.4846 22.6105 46.4441 22.5143 45.3091V44.2687C22.6105 43.6066 22.7068 42.6607 23.0918 41.5257C23.4768 40.3907 24.1505 38.9719 25.4017 37.6477C26.0755 36.9856 26.8455 36.2289 27.808 35.756C28.0005 35.5668 28.2892 35.4722 28.578 35.3777C28.8667 35.2831 29.0592 35.0939 29.4442 34.9993L29.9254 34.8101C30.1179 34.7156 30.3104 34.7156 30.4067 34.7156L30.8879 34.621L31.1767 34.5264H31.5617L32.0429 34.4318H32.9092C33.4867 34.4318 34.0642 34.4318 34.6417 34.5264C35.7966 34.7156 36.7591 35.0939 37.6254 35.4722C39.3579 36.3235 40.4166 37.3639 41.2828 38.2152C41.6678 38.6881 42.0528 39.0665 42.2453 39.4448C42.5341 39.8232 42.7266 40.2015 42.9191 40.4853C43.1116 40.769 43.1116 40.9582 43.2078 41.0528C43.2078 41.1474 43.3041 41.2419 43.3041 41.2419C43.9778 42.9445 43.0153 44.8362 41.0904 45.4983C39.7429 45.9712 38.2991 45.6874 37.3366 44.9308ZM70.3501 38.5936L70.1576 38.4044C70.0613 38.3098 69.8688 38.2152 69.6763 38.026C69.4838 37.9315 69.2913 37.7423 69.0988 37.6477C68.9063 37.4585 68.6176 37.2694 68.3288 37.0802C68.0401 36.891 67.7514 36.7018 67.4626 36.6073C67.1739 36.4181 66.8851 36.3235 66.5964 36.3235C66.4039 36.2289 66.2114 36.2289 66.1151 36.2289H65.8264H66.0189L65.5376 36.3235C65.4414 36.4181 65.2489 36.5127 64.9601 36.6073C64.7676 36.7964 64.5751 36.9856 64.2864 37.1748C64.0939 37.3639 63.9014 37.6477 63.7089 37.9315C63.3239 38.499 63.0352 38.9719 62.8427 39.3502C62.6502 39.7286 62.4577 39.9177 62.4577 39.9177L62.2652 40.2015C61.3027 41.8095 59.1852 42.4715 57.4527 41.6203C56.2977 41.0528 55.624 40.0123 55.5277 38.8773C55.5277 38.8773 55.5277 38.499 55.624 37.8369C55.7202 37.1748 55.8165 36.2289 56.2015 35.0939C56.5865 33.9589 57.2602 32.5401 58.5114 31.2159C59.1852 30.5538 59.9552 29.7971 60.9177 29.3242C61.1102 29.2296 61.3989 29.0404 61.6877 28.9459C61.9764 28.8513 62.1689 28.6621 62.5539 28.5675L63.1314 28.3783C63.3239 28.2838 63.5164 28.2838 63.6126 28.2838L64.0939 28.1892L64.3826 28.0946H64.7676L65.2489 28H66.1151C66.6926 28 67.2701 28 67.8476 28.0946C69.0026 28.2838 69.9651 28.6621 70.8313 29.0404C72.5638 29.8917 73.6226 30.9321 74.4888 31.7834C74.8738 32.2563 75.2588 32.6347 75.4513 33.013C75.74 33.3914 75.9325 33.7697 76.125 34.0535C76.3175 34.3372 76.3175 34.5264 76.4138 34.621C76.51 34.7156 76.51 34.8101 76.51 34.8101C77.1838 36.5127 76.2213 38.4044 74.2963 39.0665C72.7563 39.7286 71.3126 39.4448 70.3501 38.5936Z" fill="#9C1132"/>
<path fill-rule="evenodd" clip-rule="evenodd" d="M52 0C80.7188 0 104 22.8919 104 51.1304C104 75.8225 86.1991 96.4253 62.5274 101.211L57.9801 108.957C55.5974 113.014 49.6407 113.014 47.258 108.957L42.863 101.473C18.5014 97.2266 0 76.3037 0 51.1304C0 22.8919 23.2812 0 52 0ZM52.619 13.3913C32.1056 13.3913 15.4762 29.7427 15.4762 49.9131C15.4762 70.0835 32.1056 86.4348 52.619 86.4348C73.1325 86.4348 89.7619 70.0835 89.7619 49.9131C89.7619 29.7427 73.1325 13.3913 52.619 13.3913Z" fill="#9C1132"/>
</svg>
